<svg width="100" height="100" viewBox="0 0 100 100" xmlns="http://www.w3.org/2000/svg">
    <!-- Background gradient -->
    <defs>
        <linearGradient id="bgGradient" x1="0%" y1="0%" x2="100%" y2="100%">
            <stop offset="0%" stop-color="#3b82f6" /> <!-- Blue -->
            <stop offset="100%" stop-color="#8b5cf6" /> <!-- Purple -->
        </linearGradient>

        <!-- Pulse animation -->
        <radialGradient id="pulseGradient" cx="50%" cy="50%" r="50%" fx="50%" fy="50%">
            <stop offset="0%" stop-color="rgba(255,255,255,0.8)" />
            <stop offset="100%" stop-color="rgba(255,255,255,0)" />
        </radialGradient>
    </defs>

    <!-- Main circular background -->
    <circle cx="50" cy="50" r="45" fill="url(#bgGradient)" />

    <!-- Hourglass shape representing time -->
    <path d="M35,30 L65,30 L55,50 L65,70 L35,70 L45,50 Z"
          fill="none"
          stroke="white"
          stroke-width="2"
          opacity="0.9" />

    <!-- Neural network nodes -->
    <circle cx="50" cy="25" r="4" fill="white" opacity="0.9" />
    <circle cx="35" cy="40" r="4" fill="white" opacity="0.9" />
    <circle cx="65" cy="40" r="4" fill="white" opacity="0.9" />
    <circle cx="50" cy="50" r="5" fill="white" opacity="0.9" />
    <circle cx="35" cy="60" r="4" fill="white" opacity="0.9" />
    <circle cx="65" cy="60" r="4" fill="white" opacity="0.9" />
    <circle cx="50" cy="75" r="4" fill="white" opacity="0.9" />

    <!-- Network connections -->
    <line x1="50" y1="25" x2="35" y2="40" stroke="white" stroke-width="1.5" opacity="0.6" />
    <line x1="50" y1="25" x2="65" y2="40" stroke="white" stroke-width="1.5" opacity="0.6" />
    <line x1="35" y1="40" x2="50" y2="50" stroke="white" stroke-width="1.5" opacity="0.6" />
    <line x1="65" y1="40" x2="50" y2="50" stroke="white" stroke-width="1.5" opacity="0.6" />
    <line x1="50" y1="50" x2="35" y2="60" stroke="white" stroke-width="1.5" opacity="0.6" />
    <line x1="50" y1="50" x2="65" y2="60" stroke="white" stroke-width="1.5" opacity="0.6" />
    <line x1="35" y1="60" x2="50" y2="75" stroke="white" stroke-width="1.5" opacity="0.6" />
    <line x1="65" y1="60" x2="50" y2="75" stroke="white" stroke-width="1.5" opacity="0.6" />

    <!-- Subtle pulse for dynamic effect -->
    <circle cx="50" cy="50" r="20" fill="url(#pulseGradient)" opacity="0.3">
        <animate attributeName="r" values="20;30;20" dur="3s" repeatCount="indefinite" />
        <animate attributeName="opacity" values="0.3;0.1;0.3" dur="3s" repeatCount="indefinite" />
    </circle>
</svg>